# xmcd CD database file
#
# Track frame offsets:
#	150
#	16467
#	32934
#	51261
#	71229
#	87222
#	104673
#	126179
#	141933
#	157288
#
# Disc length: 2457 seconds
#
# Revision: 0
# Processed by: cddbd v1.5.2PL0 Copyright (c) Steve Scherf et al.
# Submitted via: CDex 1.51
#
DISCID=9809970a
DTITLE=Cory Morrow - Ten Years
DYEAR=2007
DGENRE=Country
TTITLE0=Spinning Around The Moon
TTITLE1=Nothing Better
TTITLE2=I Don't Want To Get Up
TTITLE3=Preacher
TTITLE4=Always And Forever
TTITLE5=Beat Of Your Heart
TTITLE6=Drinkin' Alone
TTITLE7=More Than Perfect
TTITLE8=21 Days
TTITLE9=Big City Stripper
EXTD=YEAR: 2007
EXTT0=
EXTT1=
EXTT2=
EXTT3=
EXTT4=
EXTT5=
EXTT6=
EXTT7=
EXTT8=
EXTT9=
PLAYORDER=
